<?xml version="1.0" encoding="utf-8"?>
<!-- Generator: Adobe Illustrator 21.1.0, SVG Export Plug-In . SVG Version: 6.00 Build 0)  -->
<svg version="1.1" id="Layer_1" xmlns="http://www.w3.org/2000/svg" xmlns:xlink="http://www.w3.org/1999/xlink" x="0px" y="0px"
	 viewBox="0 0 1920 1080" style="enable-background:new 0 0 1920 1080;" xml:space="preserve">
<style type="text/css">
	.st0{fill:#87D8D0;}
	.st1{fill:#45BEB2;}
	.st2{fill:#02A696;}
	.st3{fill:#015158;}
</style>
<g id="Layer_1_1_">
	<path class="st0" d="M1991.8,96.2c-0.3,6-0.6,12-1,18c0,0.6-0.8,0.6-0.9,0c-0.5-5.4-1.1-10.8-1.6-16.1c-0.6-5.7-1.1-11.3-1.6-17
		c0.4,7.1,0.9,14.2,1.8,21.2c0.1,0.6-0.9,0.7-1,0.1c-1.1-5.2-2-10.5-2.9-15.7c-1.4-8.4-2.6-16.7-3.9-25.1
		c-44.4-20.8-128.5,95.7-169.8,124.6c-45.1,31.6-136.5,84.7-180.5,122.1c-75.9,64.5-111.2,80.2-191.8,44.2
		c-86.7-38.8-109.3-39.2-232.2,1.2c-60.5,19.9-115.3,102.5-193.5,93.4c-103.3-12-138.8-91.4-236.6-65.1
		c-47.2,12.7-150.3,84.7-199.8,98c-119.8,32.3-148.1,58.6-236.9,173C290.1,716.5,188.4,763,129.8,778.8
		c-74.7,20.1-113.1-78.6-177.4-47.2c-33.4,16.3-77.7,45.7-119.5,78.6c-0.2,4.4-0.5,8.8-0.7,13.2c-1.5,29.7-2.7,59.5-3.8,89.2
		c-0.7,19.1-1.3,38.2-1.9,57.3l2112.1,94.1v-3.6c-5.3-30-1.1-64.5,1.6-99.5C1959.2,716.3,1989.9,361.4,1991.8,96.2z"/>
	<path class="st1" d="M-142,1056c-23.8-37.8,176.1-131.2,262.4-172.9c59.9-28.9,71.3-79.5,140.8-98c54.4-14.5,137.9,42.2,183.8-16.5
		c82.5-105.4,157.2-168.5,268.5-198.2c46-12.3,127-43.5,170.8-55.2c91-24.3,90.5,52.6,186.5,63.7c72.7,8.4,106.7-104,153.8-139.5
		c80.9-61,161.4,16.6,241.9,52.3c74.9,33.2,107.8,18.7,178.3-40.7c40.9-34.5,125.8-83.4,167.8-112.5c42-29.1,86.7-93.6,123.7-45.3
		c0,246.5,14.8,526.8-3.5,759.5c-2.5,32.3-6.4,64.1-1.5,91.7c0,1.1,0,2.2,0,3.3"/>
	<path class="st2" d="M-8,1077.1c-22.1-29.9,156.7-120.9,243.8-136.8c56.2-10.2,113.8,8,169.8-4.8c50.5-11.5,89.1-39.4,131.7-85.8
		C614,766.4,676.9,686.7,798,729.4c40.9,14.4,114.3,35.2,155,25.9c84.6-19.2,104-49.2,164-101.5c47.5-41.4,93.5-94.1,146.6-105.6
		c76.1-16.5,148.1,54.2,222.9,82.5c69.6,26.3,100.1,14.8,165.6-32.2c38-27.3,116.9-66,155.8-89s80.5-74.1,114.9-35.8
		c0,195,13.7,416.6-3.2,600.7c-2.3,25.5-5.9,50.7-1.4,72.5c0,0.9,0,1.7,0,2.6"/>
	<path class="st3" d="M-8,1086c-22.1-18,156.7-72.7,243.8-82.3c56.2-6.2,111.8,24.4,167.8,16.7c50.5-7,91.1-43.3,133.7-71.2
		C614,899,676.9,851,798,876.8c40.9,8.7,113.2,51,155,50.5c67.8-0.8,104-64.5,164-96c47.5-24.9,93.5-56.6,146.6-63.5
		c76.1-9.9,148.1,32.6,222.9,49.6c69.6,15.8,144.1,8.9,209.6-19.4c38-16.4,72.9-39.7,111.8-53.5c39-13.8,85.1-16.9,119.4,6.1
		c0,117.3,9.2,223-7.8,333.8c-2.3,15.4-5.9,30.5-1.4,43.7c0,0.5,0,1.1,0,1.6"/>
</g>
<g id="Layer_2">
</g>
</svg>
